<?xml version="1.0" encoding="UTF-8" standalone="no"?>
<!-- Created with Inkscape (http://www.inkscape.org/) -->

<svg
   xmlns:dc="http://purl.org/dc/elements/1.1/"
   xmlns:cc="http://creativecommons.org/ns#"
   xmlns:rdf="http://www.w3.org/1999/02/22-rdf-syntax-ns#"
   xmlns:svg="http://www.w3.org/2000/svg"
   xmlns="http://www.w3.org/2000/svg"
   xmlns:sodipodi="http://sodipodi.sourceforge.net/DTD/sodipodi-0.dtd"
   xmlns:inkscape="http://www.inkscape.org/namespaces/inkscape"
   width="744.09448819"
   height="1052.3622047"
   id="svg2828"
   version="1.1"
   inkscape:version="0.47 r22583"
   sodipodi:docname="New document 3">
  <defs
     id="defs2830">
    <inkscape:perspective
       sodipodi:type="inkscape:persp3d"
       inkscape:vp_x="0 : 526.18109 : 1"
       inkscape:vp_y="0 : 1000 : 0"
       inkscape:vp_z="744.09448 : 526.18109 : 1"
       inkscape:persp3d-origin="372.04724 : 350.78739 : 1"
       id="perspective2836" />
  </defs>
  <sodipodi:namedview
     id="base"
     pagecolor="#ffffff"
     bordercolor="#666666"
     borderopacity="1.0"
     inkscape:pageopacity="0.0"
     inkscape:pageshadow="2"
     inkscape:zoom="0.70710678"
     inkscape:cx="531.83796"
     inkscape:cy="590.41549"
     inkscape:document-units="px"
     inkscape:current-layer="layer1"
     showgrid="false"
     inkscape:window-width="1335"
     inkscape:window-height="767"
     inkscape:window-x="30"
     inkscape:window-y="0"
     inkscape:window-maximized="1" />
  <metadata
     id="metadata2833">
    <rdf:RDF>
      <cc:Work
         rdf:about="">
        <dc:format>image/svg+xml</dc:format>
        <dc:type
           rdf:resource="http://purl.org/dc/dcmitype/StillImage" />
        <dc:title></dc:title>
      </cc:Work>
    </rdf:RDF>
  </metadata>
  <g
     inkscape:label="Layer 1"
     inkscape:groupmode="layer"
     id="layer1">
    <path
       sodipodi:type="arc"
       style="fill:#000080;fill-opacity:1;stroke:none;stroke-width:50;stroke-miterlimit:4;stroke-dasharray:none"
       id="path2838"
       sodipodi:cx="421.42856"
       sodipodi:cy="459.50504"
       sodipodi:rx="275.71429"
       sodipodi:ry="275.71429"
       d="m 697.14285,459.50504 a 275.71429,275.71429 0 1 1 -551.42859,0 275.71429,275.71429 0 1 1 551.42859,0 z"
       transform="matrix(1,0,0,-1,-40,821.86721)" />
    <path
       style="fill:#008300;stroke:none;stroke-width:1px;stroke-linecap:butt;stroke-linejoin:miter;stroke-opacity:1;fill-opacity:1"
       d="m 253.14423,205.24826 c -21.2132,23.09882 -65.62161,-0.19275 -63.63961,69.29647 -3.54088,47.94463 18.36665,54.5356 28.28427,80.61017 21.02862,1.7867 55.82431,2.95031 86.97413,-7.07107 39.12658,4.71405 21.4353,11.5115 63.63961,24.74874 -12.53707,-37.61015 -20.47927,-26.50702 -36.76955,-53.03301 -15.87257,-38.99079 -1.67981,-66.61204 -3.53554,-93.33809 -28.66755,-27.94203 -51.80633,-24.55442 -74.95331,-21.21321 z"
       id="path5104"
       sodipodi:nodetypes="cccccccc" />
    <path
       style="fill:#008300;stroke:none;stroke-width:1px;stroke-linecap:butt;stroke-linejoin:miter;stroke-opacity:1;fill-opacity:1"
       d="m 497.80317,219.3904 c -26.33921,21.1033 -52.08004,42.87977 -63.63961,80.61017 -7.21117,33.95731 -7.81055,63.10605 5.65686,82.02439 16.02775,25.61508 32.05551,18.2268 48.08326,25.45584 8.13884,-3.46623 19.53575,8.48203 52.3259,7.07107 22.48462,2.74285 38.71558,-8.58505 53.74011,-22.62742 1.06447,-23.65455 3.48336,-46.81658 -15.55635,-77.78174 -25.37298,5.60253 -29.57769,6.05905 -58.68986,24.74874 18.71507,19.72996 12.60616,31.26795 27.57717,30.40559 -34.53042,37.26076 -51.92452,-8.30401 -76.36754,-19.79899 -20.69109,-16.15885 74.90673,-137.14125 76.36754,-130.10765 1.46639,7.06043 -49.49748,4.24264 -49.49748,0 z"
       id="path5108"
       sodipodi:nodetypes="ccccccccccsc" />
    <path
       style="fill:#008300;stroke:none;stroke-width:1px;stroke-linecap:butt;stroke-linejoin:miter;stroke-opacity:1;fill-opacity:1"
       d="m 259.50819,414.55187 c -16.91115,-16.2046 -12.56203,102.1364 24.04163,147.07821 36.88539,22.11716 54.35595,40.84212 85.55992,36.76955 40.06231,-40.78179 97.84537,-199.51269 55.15433,-171.11984 -30.45391,40.15717 -72.37355,144.1785 -91.92388,117.37973 -56.2125,-33.49646 -46.80412,-89.90349 -72.832,-130.10765 z"
       id="path5110"
       sodipodi:nodetypes="cccccc" />
    <path
       style="stroke:#000000;stroke-width:1px;stroke-linecap:butt;stroke-linejoin:miter;stroke-opacity:1;fill-opacity:1;fill:#000080"
       d="m 259.50819,246.96756 c -11.0809,12.1587 -22.12294,24.57641 -31.81981,45.96194 8.15454,13.92937 3.77203,30.88493 24.74874,41.7193 -0.91053,1.82105 27.80158,-3.03187 27.04683,-8.66206 -1.80872,-13.49246 24.47149,-27.56885 23.68808,-24.39518 -3.32792,-4.22473 -21.17613,-54.96113 -43.66384,-54.624 z"
       id="path5112"
       sodipodi:nodetypes="cccscc" />
    <text
       xml:space="preserve"
       style="font-size:40px;font-style:normal;font-weight:normal;fill:#0000ff;fill-opacity:1;stroke:none;font-family:Bitstream Vera Sans"
       x="448.30573"
       y="567.28693"
       id="text5114"><tspan
         sodipodi:role="line"
         id="tspan5116"
         x="448.30573"
         y="567.28693">DS</tspan></text>
  </g>
</svg>
